HIERARCHY
ROOT hip
{
  OFFSET 280.763 78.5162 70.7847
  CHANNELS 6 Xposition Yposition Zposition Zrotation Xrotation Yrotation
  JOINT abdomen
  {
    OFFSET 0 20.6881 -0.73152
    CHANNELS 3 Zrotation Xrotation Yrotation
    JOINT chest
    {
      OFFSET 0 11.7043 -0.48768
      CHANNELS 3 Zrotation Xrotation Yrotation
      JOINT neck
      {
        OFFSET 0 22.1894 -2.19456
        CHANNELS 3 Zrotation Xrotation Yrotation
        JOINT head
        {
          OFFSET -0.24384 7.07133 1.2192
          CHANNELS 3 Zrotation Xrotation Yrotation
          JOINT leftEye
          {
            OFFSET 4.14528 8.04674 8.04672
            CHANNELS 3 Zrotation Xrotation Yrotation
            End Site
            {
              OFFSET 1 0 0
            }
          }
          JOINT rightEye
          {
            OFFSET -3.6576 8.04674 8.04672
            CHANNELS 3 Zrotation Xrotation Yrotation
            End Site
            {
              OFFSET 1 0 0
            }
          }
        }
      }
      JOINT rCollar
      {
        OFFSET -2.68224 19.2634 -4.8768
        CHANNELS 3 Zrotation Xrotation Yrotation
        JOINT rShldr
        {
          OFFSET -8.77824 -1.95073 1.46304
          CHANNELS 3 Zrotation Xrotation Yrotation
          JOINT rForeArm
          {
            OFFSET -28.1742 -1.7115 0.48768
            CHANNELS 3 Zrotation Xrotation Yrotation
            JOINT rHand
            {
              OFFSET -22.5879 0.773209 7.07136
              CHANNELS 3 Zrotation Xrotation Yrotation
              JOINT rThumb1
              {
                OFFSET -1.2192 -0.487915 3.41376
                CHANNELS 3 Zrotation Xrotation Yrotation
                JOINT rThumb2
                {
                  OFFSET -3.37035 -0.52449 3.41376
                  CHANNELS 3 Zrotation Xrotation Yrotation
                  End Site
                  {
                    OFFSET -1.78271 -1.18214 1.43049
                  }
                }
              }
              JOINT rIndex1
              {
                OFFSET -7.75947 0.938293 5.60832
                CHANNELS 3 Zrotation Xrotation Yrotation
                JOINT rIndex2
                {
                  OFFSET -2.54057 -0.884171 1.56538
                  CHANNELS 3 Zrotation Xrotation Yrotation
                  End Site
                  {
                    OFFSET -1.62519 -0.234802 1.16502
                  }
                }
              }
              JOINT rMid1
              {
                OFFSET -8.24714 1.18213 3.41376
                CHANNELS 3 Zrotation Xrotation Yrotation
                JOINT rMid2
                {
                  OFFSET -3.10165 -0.590103 1.0647
                  CHANNELS 3 Zrotation Xrotation Yrotation
                  End Site
                  {
                    OFFSET -2.48547 -0.328903 0.83742
                  }
                }
              }
              JOINT rRing1
              {
                OFFSET -8.82822 0.546677 1.51678
                CHANNELS 3 Zrotation Xrotation Yrotation
                JOINT rRing2
                {
                  OFFSET -2.60934 -0.819778 -0.0198488
                  CHANNELS 3 Zrotation Xrotation Yrotation
                  End Site
                  {
                    OFFSET -2.33842 -0.294052 0.168128
                  }
                }
              }
              JOINT rPinky1
              {
                OFFSET -8.27202 -0.0477905 -0.4584
                CHANNELS 3 Zrotation Xrotation Yrotation
                JOINT rPinky2
                {
                  OFFSET -1.82734 -0.647385 -0.700984
                  CHANNELS 3 Zrotation Xrotation Yrotation
                  End Site
                  {
                    OFFSET -1.69225 -0.51767 -0.607171
                  }
                }
              }
            }
          }
        }
      }
      JOINT lCollar
      {
        OFFSET 2.68224 19.2634 -4.8768
        CHANNELS 3 Zrotation Xrotation Yrotation
        JOINT lShldr
        {
          OFFSET 8.77824 -1.95073 1.46304
          CHANNELS 3 Zrotation Xrotation Yrotation
          JOINT lForeArm
          {
            OFFSET 28.1742 -1.7115 0.48768
            CHANNELS 3 Zrotation Xrotation Yrotation
            JOINT lHand
            {
              OFFSET 22.5879 0.773209 7.07136
              CHANNELS 3 Zrotation Xrotation Yrotation
              JOINT lThumb1
              {
                OFFSET 1.2192 -0.487915 3.41376
                CHANNELS 3 Zrotation Xrotation Yrotation
                JOINT lThumb2
                {
                  OFFSET 3.37035 -0.52449 3.41376
                  CHANNELS 3 Zrotation Xrotation Yrotation
                  End Site
                  {
                    OFFSET 1.78271 -1.18214 1.43049
                  }
                }
              }
              JOINT lIndex1
              {
                OFFSET 7.75947 0.938293 5.60832
                CHANNELS 3 Zrotation Xrotation Yrotation
                JOINT lIndex2
                {
                  OFFSET 2.54057 -0.884171 1.56538
                  CHANNELS 3 Zrotation Xrotation Yrotation
                  End Site
                  {
                    OFFSET 1.62519 -0.234802 1.16502
                  }
                }
              }
              JOINT lMid1
              {
                OFFSET 8.24714 1.18213 3.41376
                CHANNELS 3 Zrotation Xrotation Yrotation
                JOINT lMid2
                {
                  OFFSET 3.10165 -0.590103 1.0647
                  CHANNELS 3 Zrotation Xrotation Yrotation
                  End Site
                  {
                    OFFSET 2.48547 -0.328903 0.83742
                  }
                }
              }
              JOINT lRing1
              {
                OFFSET 8.82822 0.546677 1.51678
                CHANNELS 3 Zrotation Xrotation Yrotation
                JOINT lRing2
                {
                  OFFSET 2.60934 -0.819778 -0.0198488
                  CHANNELS 3 Zrotation Xrotation Yrotation
                  End Site
                  {
                    OFFSET 2.33842 -0.294052 0.168128
                  }
                }
              }
              JOINT lPinky1
              {
                OFFSET 8.27202 -0.0477905 -0.4584
                CHANNELS 3 Zrotation Xrotation Yrotation
                JOINT lPinky2
                {
                  OFFSET 1.82734 -0.647385 -0.700984
                  CHANNELS 3 Zrotation Xrotation Yrotation
                  End Site
                  {
                    OFFSET 1.69225 -0.51767 -0.607171
                  }
                }
              }
            }
          }
        }
      }
    }
  }
  JOINT rButtock
  {
    OFFSET -8.77824 4.35084 1.2192
    CHANNELS 3 Zrotation Xrotation Yrotation
    JOINT rThigh
    {
      OFFSET 0 -1.70687 -2.19456
      CHANNELS 3 Zrotation Xrotation Yrotation
      JOINT rShin
      {
        OFFSET 0 -36.8199 0.73152
        CHANNELS 3 Zrotation Xrotation Yrotation
        JOINT rFoot
        {
          OFFSET 0.73152 -45.1104 -5.12064
          CHANNELS 3 Zrotation Xrotation Yrotation
          End Site
          {
            OFFSET -1.1221 -3.69964 12.103
          }
        }
      }
    }
  }
  JOINT lButtock
  {
    OFFSET 8.77824 4.35084 1.2192
    CHANNELS 3 Zrotation Xrotation Yrotation
    JOINT lThigh
    {
      OFFSET 0 -1.70687 -2.19456
      CHANNELS 3 Zrotation Xrotation Yrotation
      JOINT lShin
      {
        OFFSET 0 -36.8199 0.73152
        CHANNELS 3 Zrotation Xrotation Yrotation
        JOINT lFoot
        {
          OFFSET -0.73152 -45.1104 -5.12064
          CHANNELS 3 Zrotation Xrotation Yrotation
          End Site
          {
            OFFSET 1.1221 -3.69964 12.103
          }
        }
      }
    }
  }
}
MOTION
Frames:	4
Frame Time:	0.00833333
64.4699 81.436 -27.7951 -1.39626 18.1978 67.2179 -17.095 15.8484 -9.28903 8.20552 -0.738846 -3.16592 -13.167 10.2366 -3.6069 30.7601 -39.4892 5.44415 -0 0 0 -0 0 0 3.71514e-013 -1.28082e-012 1.10254e-013 70.8577 19.7194 19.2328 -26.1571 -46.1218 95.5514 -0.259706 -13.5093 -1.93867 1.35956e-009 5.31349e-009 -2.79344e-009 2.36711e-009 9.17938e-009 -4.81294e-009 1.35957e-009 5.31349e-009 -2.79345e-009 7.73091 5.47488 0.417314 1.35956e-009 5.31349e-009 -2.79345e-009 2.90554 0.965183 0.102902 1.35956e-009 5.31349e-009 -2.79344e-009 10.2786 0.731801 0.0259123 1.35955e-009 5.31349e-009 -2.79343e-009 2.22167 -0.733487 -0.20892 3.71269e-013 -1.28083e-012 1.10053e-013 -69.7826 40.4781 -1.37128 28.1619 -31.469 -69.3765 0.197219 -12.5287 1.7899 -1.50879e-009 -6.74305e-009 7.20276e-009 -2.67465e-009 -1.17035e-008 1.24263e-008 -1.50878e-009 -6.74303e-009 7.20276e-009 -7.73091 5.47488 -0.417314 -1.50878e-009 -6.74304e-009 7.20276e-009 -2.90554 0.965183 -0.102902 -1.50879e-009 -6.74305e-009 7.20276e-009 -10.2786 0.731801 -0.0259123 -1.50879e-009 -6.74305e-009 7.20274e-009 -2.22167 -0.733487 0.20892 -2.03217e-016 0 -3.88251e-019 -4.93051 -58.0065 -3.42836 -1.55406 68.0706 2.97946 -1.2483 -4.61159 -2.46942 2.03217e-016 0 3.88251e-019 -6.44194 19.5124 6.18907 -0.233404 17.7623 -1.98433 -1.76777 12.3697 10.3354 
68.1563 82.025 -26.4885 -1.5719 18.1326 66.857 -16.208 15.1171 -10.0465 8.51521 -0.609523 -3.33142 -13.065 10.0905 -3.00746 29.5861 -39.1006 6.14888 -0 0 0 -0 0 0 3.21396e-013 -1.33424e-012 2.29099e-013 68.368 21.5726 20.6998 -25.4293 -47.301 98.3788 -0.193109 -12.4231 -1.77413 9.59869e-010 5.65949e-009 -3.34917e-009 1.68123e-009 9.788e-009 -5.7746e-009 9.59873e-010 5.65949e-009 -3.34918e-009 7.73091 5.47488 0.417314 9.59867e-010 5.65949e-009 -3.34917e-009 2.90554 0.965183 0.102902 9.59872e-010 5.65949e-009 -3.34917e-009 10.2786 0.731801 0.0259123 9.5986e-010 5.6595e-009 -3.34916e-009 2.22167 -0.733487 -0.20892 3.21147e-013 -1.33424e-012 2.28901e-013 -70.0753 41.2406 0.75462 28.2466 -32.3748 -71.0583 0.218194 -13.1884 1.8873 -1.59243e-009 -6.99174e-009 7.33649e-009 -2.82228e-009 -1.21375e-008 1.26561e-008 -1.59242e-009 -6.99172e-009 7.33649e-009 -7.73091 5.47488 -0.417314 -1.59242e-009 -6.99173e-009 7.33649e-009 -2.90554 0.965183 -0.102902 -1.59244e-009 -6.99174e-009 7.33648e-009 -10.2786 0.731801 -0.0259123 -1.59243e-009 -6.99174e-009 7.33646e-009 -2.22167 -0.733487 0.20892 -2.03217e-016 0 -3.88251e-019 -4.19227 -57.127 -2.83227 -0.969644 61.9624 2.44934 -1.07174 -5.35934 -1.57406 2.03217e-016 0 3.88251e-019 -6.81269 22.5767 6.06241 -0.191131 15.5557 -1.93029 -2.50965 13.4644 12.1127 
71.9096 82.5982 -25.0923 -1.64576 18.3638 66.5578 -15.7623 14.3404 -10.8083 8.85606 -0.304179 -3.53003 -12.8828 10.1619 -2.40537 28.6155 -39.0949 6.99371 -0 0 0 -0 0 0 1.23422e-013 -8.69276e-013 2.3607e-013 65.6936 23.2747 22.6983 -24.7487 -48.2926 100.805 -0.0348024 -8.87296 -1.25097 7.24924e-011 4.59959e-009 -3.15682e-009 1.43875e-010 7.9546e-009 -5.44159e-009 7.24955e-011 4.59959e-009 -3.15683e-009 7.73091 5.47488 0.417314 7.24897e-011 4.59959e-009 -3.15683e-009 2.90554 0.965183 0.102902 7.2496e-011 4.59959e-009 -3.15682e-009 10.2786 0.731801 0.0259123 7.24837e-011 4.5996e-009 -3.15681e-009 2.22167 -0.733487 -0.20892 1.23224e-013 -8.6927e-013 2.35883e-013 -70.5812 41.7593 3.0081 28.2763 -32.9182 -72.1558 0.247285 -14.0818 2.01971 -1.06997e-009 -5.76766e-009 6.28494e-009 -1.9118e-009 -1.00206e-008 1.08476e-008 -1.06996e-009 -5.76765e-009 6.28495e-009 -7.73091 5.47488 -0.417314 -1.06996e-009 -5.76765e-009 6.28494e-009 -2.90554 0.965183 -0.102902 -1.06997e-009 -5.76766e-009 6.28494e-009 -10.2786 0.731801 -0.0259123 -1.06997e-009 -5.76766e-009 6.28492e-009 -2.22167 -0.733487 0.20892 -2.03217e-016 0 -3.88251e-019 -3.98141 -56.1474 -2.55275 -0.621401 55.8684 2.11262 -0.881951 -5.90879 -0.781002 2.03217e-016 0 3.88251e-019 -7.38066 25.0448 6.23642 -0.17254 14.2493 -1.80231 -2.87948 14.82 12.5243 
75.675 83.1539 -23.7399 -1.66537 18.7962 66.3127 -15.5919 13.522 -11.5711 9.22554 0.127363 -3.75237 -12.6429 10.3843 -1.79746 27.7693 -39.3471 7.93826 -0 0 0 -0 0 0 -1.78515e-013 -6.96805e-014 1.82357e-013 62.7123 24.8462 25.1331 -24.1088 -49.2097 102.938 0.0792226 -3.62713 -0.503921 -1.19529e-009 2.68573e-009 -2.54097e-009 -2.05583e-009 4.63882e-009 -4.37582e-009 -1.19529e-009 2.68573e-009 -2.54099e-009 7.73091 5.47488 0.417314 -1.19529e-009 2.68573e-009 -2.54098e-009 2.90554 0.965183 0.102902 -1.19529e-009 2.68573e-009 -2.54098e-009 10.2786 0.731801 0.0259123 -1.1953e-009 2.68573e-009 -2.54097e-009 2.22167 -0.733487 -0.20892 -1.78623e-013 -6.96679e-014 1.82186e-013 -71.3341 42.061 5.4479 28.3021 -33.2738 -72.768 0.288316 -15.195 2.1866 -1.56335e-010 -3.53528e-009 4.41134e-009 -3.18081e-010 -6.15742e-009 7.62497e-009 -1.56335e-010 -3.53527e-009 4.41136e-009 -7.73091 5.47488 -0.417314 -1.56329e-010 -3.53528e-009 4.41134e-009 -2.90554 0.965183 -0.102902 -1.5634e-010 -3.53528e-009 4.41134e-009 -10.2786 0.731801 -0.0259123 -1.56334e-010 -3.53528e-009 4.41133e-009 -2.22167 -0.733487 0.20892 -2.03217e-016 0 -3.88251e-019 -4.21076 -55.0136 -2.58945 -0.412685 49.6984 1.88664 -0.677307 -6.3 -0.0251728 2.03217e-016 0 3.88251e-019 -8.14471 27.0702 6.68873 -0.158484 13.6088 -1.61404 -2.9086 16.1753 12.0025 
